# xmcd
#
# Track frame offsets: 
#        150
#        13867
#        24208
#        36614
#        48990
#        61874
#        73905
#        85080
#        97681
#        107747
#        117609
#        129487
#        140806
#        152327
#        161909
#        174166
#        185977
#        197719
#        213069
#        224482
#
# Disc length: 3153 seconds
#
# Revision: 0
# Processed by: cddbd v1.5.2PL0 Copyright (c) Steve Scherf et al.
# Submitted via: ExactAudioCopy v1.0b3
#
DISCID=200c4f14
DTITLE=Bill Monroe - Famous Country Music Makers - d1
DYEAR=2008
DGENRE=bluegrass
TTITLE0=Blue Moon of Kentucky
TTITLE1=Y'all Come
TTITLE2=Uncle Penn
TTITLE3=New Muleskinner Blues
TTITLE4=I'm Blue, I'm Lonesome
TTITLE5=Footprints in the Snow
TTITLE6=Sittin' Alone in the Moonlight
TTITLE7=On and On
TTITLE8=White House Blues
TTITLE9=Happy on My Way
TTITLE10=A Voice From on High
TTITLE11=Close by
TTITLE12=Put My Little Shoes Away
TTITLE13=Used to Be
TTITLE14=lord, Protect My soul
TTITLE15=The Brakeman's Blues
TTITLE16=Rocky Road Blues
TTITLE17=In The Pines
TTITLE18=Cryin' Holy Unto My lord
TTITLE19=Goodbye Old Pal
EXTD=
EXTT0=\n
EXTT1=
EXTT2=
EXTT3=
EXTT4=
EXTT5=
EXTT6=
EXTT7=
EXTT8=
EXTT9=
EXTT10=
EXTT11=
EXTT12=
EXTT13=
EXTT14=
EXTT15=
EXTT16=
EXTT17=
EXTT18=
EXTT19=
PLAYORDER=
